<svg width="330" height="101" viewBox="0 0 330 101" fill="none" xmlns="http://www.w3.org/2000/svg">
<path d="M219.924 32.3032C223.831 53.9748 249.05 79.2838 263.613 89.0078C278.175 79.2838 303.394 53.9748 307.301 32.3032C312.118 5.5906 282.472 -7.11669 263.613 11.8759C244.753 -7.11669 215.107 5.5906 219.924 32.3032Z" fill="#1F77FC" stroke="white" stroke-width="5.09138"/>
<path d="M271.662 61.774C274.122 75.4254 289.999 91.368 299.167 97.4934C308.335 91.368 324.211 75.4254 326.671 61.774C329.704 44.9471 311.04 36.9425 299.167 48.9064C287.294 36.9425 268.63 44.9471 271.662 61.774Z" fill="#FC1FB1" stroke="white" stroke-width="5.09138"/>
<path d="M48.0158 54.8477C47.6996 54.9381 47.2478 54.8477 46.6604 54.5767C46.0731 54.2604 45.5309 53.9215 45.034 53.5601C44.537 53.1535 44.1304 52.7469 43.8141 52.3402C43.543 51.9336 43.5204 51.6174 43.7463 51.3915C47.5415 50.533 51.3592 49.7424 55.1995 49.0195C59.0398 48.2515 62.9253 47.6641 66.8559 47.2575C69.7926 44.5467 72.6615 41.8585 75.4627 39.1929C78.2639 36.4821 80.9069 33.8842 83.3918 31.3993C85.9219 28.8692 88.2712 26.4973 90.4399 24.2835C92.6085 22.0245 94.5287 19.9914 96.2003 18.1842C97.9172 16.377 99.3403 14.8408 100.47 13.5758C101.599 12.2656 102.39 11.2942 102.842 10.6617C103.158 10.5261 103.655 10.6617 104.333 11.0683C105.056 11.4297 105.756 11.8815 106.434 12.4237C107.111 12.9659 107.676 13.5306 108.128 14.118C108.58 14.6601 108.715 15.0441 108.534 15.27L108.196 15.5411C108.422 15.6315 108.534 15.7444 108.534 15.88C108.037 17.1902 107.337 18.7715 106.434 20.6239C105.53 22.4311 104.468 24.419 103.248 26.5876C102.074 28.7563 100.786 31.0605 99.3855 33.5002C97.9849 35.9399 96.5618 38.4022 95.116 40.8871C92.8118 44.8178 90.5302 48.771 88.2712 52.7469C86.0122 56.6775 84.0243 60.3597 82.3075 63.7934C80.6358 67.1819 79.3708 70.1638 78.5124 72.739C77.6991 75.3143 77.5636 77.1893 78.1057 78.3639C78.4672 79.132 78.8286 79.6516 79.1901 79.9226H79.0545C79.3708 80.1485 79.5063 80.3744 79.4611 80.6003C79.4611 80.8714 79.3482 81.0973 79.1223 81.278C78.9416 81.4588 78.6705 81.5717 78.309 81.6169C77.9928 81.7073 77.6539 81.6847 77.2925 81.5491C74.8528 81.3684 73.1585 80.6003 72.2097 79.2449C71.3061 77.9347 70.8543 76.3986 70.8543 74.6366C70.8543 73.8233 70.9221 72.9875 71.0577 72.1291C71.2384 71.2255 71.4417 70.3445 71.6676 69.4861C71.8935 68.6276 72.142 67.8144 72.4131 67.0463C72.6841 66.2783 72.9326 65.578 73.1585 64.9455C74.2428 62.4154 75.4627 59.8627 76.8181 57.2875C78.2187 54.7122 79.7096 52.0918 81.2909 49.4261C80.4325 49.381 79.5967 49.3584 78.7834 49.3584C77.9702 49.3132 77.1795 49.2906 76.4115 49.2906C75.6434 49.2906 74.8754 49.3132 74.1073 49.3584C73.3844 49.3584 72.6615 49.381 71.9387 49.4261L68.889 52.2047L65.4327 55.4577C62.3153 58.3944 59.0172 61.4214 55.5383 64.5389C52.1046 67.6563 48.5354 70.5252 44.8307 73.1456C41.1711 75.7209 37.4211 77.867 33.5808 79.5838C29.7405 81.3458 25.855 82.3172 21.9244 82.4979C18.2648 82.6786 15.0796 82.2946 12.3688 81.3458C9.70319 80.4422 7.48937 79.1546 5.72735 77.4829C4.01051 75.8564 2.72288 73.9363 1.86446 71.7225C1.00604 69.5087 0.576829 67.1819 0.576829 64.7422C0.576829 62.0314 1.0964 59.3206 2.13554 56.6098C3.21986 53.8538 4.77857 51.3689 6.81167 49.1551C8.88995 46.9412 11.42 45.1566 14.4019 43.8012C17.429 42.4006 20.9078 41.6552 24.8385 41.5648C28.0011 41.5196 30.6893 42.1296 32.9031 43.3946C35.117 44.6145 36.8564 46.4217 38.1214 48.8162H38.1892C38.2796 49.1776 38.2796 49.6972 38.1892 50.3749C38.0988 51.0526 37.9407 51.7077 37.7148 52.3402C37.4889 52.9276 37.2178 53.3794 36.9016 53.6956C36.5853 53.9667 36.2465 53.899 35.885 53.4923C35.388 52.7243 34.7555 51.8884 33.9875 50.9848C33.2194 50.0361 32.361 49.1776 31.4122 48.4096C30.4634 47.6415 29.4017 46.9864 28.227 46.4443C27.0975 45.9021 25.8776 45.631 24.5674 45.631C21.45 45.5407 18.6714 46.0376 16.2317 47.122C13.792 48.1611 11.7363 49.5843 10.0646 51.3915C8.39297 53.1535 7.10534 55.164 6.20174 57.423C5.34332 59.682 4.91411 61.941 4.91411 64.2C4.91411 66.0524 5.20778 67.837 5.79512 69.5538C6.42764 71.2707 7.35383 72.7842 8.57369 74.0944C9.83873 75.4046 11.42 76.4438 13.3176 77.2118C15.2152 78.0251 17.4516 78.4317 20.0268 78.4317C20.3883 78.4317 20.7271 78.4317 21.0434 78.4317C21.4048 78.4317 21.7663 78.4091 22.1277 78.3639C25.1548 78.1832 28.3174 77.257 31.6155 75.5854C34.9136 73.9137 38.3247 71.7902 41.8488 69.215C45.3728 66.5945 48.9646 63.6578 52.6242 60.4049C56.2838 57.1067 59.966 53.7182 63.6707 50.2394C58.6557 51.0526 53.4826 52.5887 48.1514 54.8477H48.0158ZM83.7984 38.0408C82.3978 39.4414 80.9295 40.8871 79.3934 42.3781C77.8572 43.869 76.3211 45.3373 74.785 46.7831C75.1916 46.7379 75.5982 46.7153 76.0049 46.7153C76.4115 46.7153 76.8407 46.7153 77.2925 46.7153C78.2413 46.7153 79.1675 46.7379 80.0711 46.7831C80.9747 46.7831 81.8783 46.8057 82.7819 46.8509C84.318 44.2756 85.8993 41.7229 87.5258 39.1929C89.1523 36.6628 90.7787 34.1101 92.4052 31.5348L95.3871 26.9265C93.3992 28.7789 91.4338 30.6312 89.4911 32.4836C87.5935 34.336 85.696 36.1884 83.7984 38.0408ZM143.625 63.0479C142.992 64.0419 142.134 65.2843 141.049 66.7753C139.965 68.221 138.745 69.6216 137.39 70.977C136.079 72.3324 134.656 73.5071 133.12 74.501C131.584 75.4498 130.048 75.9242 128.512 75.9242C127.608 75.9242 126.75 75.7887 125.937 75.5176C125.123 75.2465 124.4 74.8399 123.768 74.2977C123.135 73.7556 122.638 73.0553 122.277 72.1969C121.916 71.3384 121.757 70.3219 121.803 69.1472C121.848 68.0177 122.006 66.8882 122.277 65.7587C122.548 64.6292 122.909 63.4319 123.361 62.1669C123.813 60.8567 124.333 59.4335 124.92 57.8974C125.553 56.3613 126.275 54.6444 127.089 52.7469C127.45 51.8433 127.766 50.9848 128.037 50.1716C128.308 49.3584 128.444 48.6355 128.444 48.003C128.444 47.5512 128.15 47.4382 127.563 47.6641C127.021 47.89 126.095 48.5451 124.784 49.6294C123.203 51.0752 121.735 52.4984 120.379 53.899C119.024 55.2995 117.691 56.8582 116.381 58.5751C115.658 60.1112 114.98 61.7829 114.348 63.5901C113.761 65.3973 113.241 67.3174 112.789 69.3505C112.337 71.3384 112.044 73.3715 111.908 75.4498C111.908 75.9016 111.569 76.0823 110.892 75.992C110.214 75.9016 109.468 75.6983 108.655 75.3821C107.887 75.0206 107.164 74.5914 106.487 74.0944C105.809 73.5523 105.447 73.0553 105.402 72.6035C105.538 69.4409 106.103 66.2783 107.096 63.1157C108.136 59.9079 109.31 56.6323 110.621 53.289C111.298 51.5722 111.795 50.149 112.111 49.0195C112.428 47.89 112.473 47.2123 112.247 46.9864C111.705 47.0768 110.417 47.9578 108.384 49.6294C106.803 51.03 105.357 52.4532 104.047 53.899C102.737 55.2995 101.381 56.8582 99.9806 58.5751C98.8059 61.2407 97.812 63.9741 96.9987 66.7753C96.1855 69.5764 95.6659 72.4679 95.44 75.4498C95.3949 75.8564 95.0334 76.0146 94.3557 75.9242C93.678 75.8339 92.9551 75.6305 92.1871 75.3143C91.419 74.9528 90.6961 74.5236 90.0184 74.0267C89.3407 73.5297 88.9793 73.0553 88.9341 72.6035C89.1148 69.215 89.7473 65.8717 90.8317 62.5735C91.9612 59.2302 93.1584 55.8643 94.4235 52.4758C95.056 50.8945 95.6659 49.268 96.2533 47.5963C96.8858 45.9247 97.4731 44.0949 98.0153 42.107C98.5575 41.8359 99.3029 41.8359 100.252 42.107C101.2 42.3329 102.104 42.7169 102.963 43.2591C103.821 43.8012 104.521 44.4563 105.063 45.2244C105.606 45.9925 105.741 46.7605 105.47 47.5286H105.538C105.538 47.6189 105.515 47.6867 105.47 47.7319C107.142 46.1506 108.926 44.8178 110.824 43.7335C112.721 42.604 114.709 41.9714 116.788 41.8359C117.33 41.8359 117.917 42.0392 118.55 42.4458C119.227 42.8073 119.837 43.2817 120.379 43.869C120.922 44.4112 121.328 44.9985 121.599 45.631C121.87 46.2635 121.916 46.8283 121.735 47.3253C121.644 47.4608 121.577 47.5963 121.531 47.7319C121.531 47.8674 121.486 47.9804 121.396 48.0707C123.113 46.4443 124.965 45.0437 126.953 43.869C128.941 42.6491 131.019 41.9714 133.188 41.8359C133.685 41.8359 134.25 42.0392 134.882 42.4458C135.515 42.8073 136.079 43.2817 136.576 43.869C137.119 44.4112 137.525 44.9985 137.796 45.631C138.113 46.2635 138.18 46.8283 138 47.3253C137.232 49.4939 136.463 51.4818 135.695 53.289C134.927 55.0962 134.25 56.6549 133.662 57.9652C133.12 59.0947 132.646 60.1564 132.239 61.1504C131.833 62.1443 131.471 63.1383 131.155 64.1322C130.839 65.1262 130.567 66.1427 130.342 67.1819C130.116 68.221 129.958 69.3505 129.867 70.5704C129.822 70.7963 129.867 71.0448 130.003 71.3159C130.138 71.5869 130.455 71.6095 130.952 71.3836C132.217 70.7963 133.708 69.7346 135.424 68.1984C137.141 66.6171 138.926 64.4711 140.778 61.7603C141.185 61.1729 141.614 60.4952 142.066 59.7272C142.518 58.9139 142.992 58.0555 143.489 57.1519L144.234 55.9998C144.506 55.6384 144.867 55.4125 145.319 55.3221C145.771 55.2318 146.177 55.2544 146.539 55.3899C146.945 55.4803 147.216 55.6836 147.352 55.9998C147.533 56.3161 147.487 56.7001 147.216 57.1519C146.629 58.1459 146.019 59.1398 145.387 60.1338C144.799 61.0826 144.212 62.054 143.625 63.0479ZM163.951 41.5648C165.08 41.7004 166.052 41.9714 166.865 42.3781C167.678 42.7847 168.333 43.2817 168.83 43.869C169.372 44.4563 169.756 45.1114 169.982 45.8343C170.253 46.5572 170.434 47.2801 170.524 48.003C171.383 48.9517 171.925 50.262 172.151 51.9336C172.196 52.2499 172.219 52.5661 172.219 52.8824C172.264 53.1987 172.286 53.5375 172.286 53.899C172.286 55.5706 172.038 57.2649 171.541 58.9817C171.089 60.6986 170.434 62.3702 169.576 63.9967C168.717 65.6232 167.701 67.1593 166.526 68.6051C165.351 70.0056 164.064 71.2481 162.663 72.3324C161.308 73.4167 159.862 74.2751 158.326 74.9077C156.835 75.495 155.299 75.7887 153.717 75.7887C150.961 75.7435 148.522 74.9077 146.398 73.2812C144.275 71.6095 142.829 69.2602 142.061 66.2331C141.835 65.2391 141.722 64.2904 141.722 63.3868C141.722 60.9019 142.355 58.3266 143.62 55.661C144.885 52.9954 146.556 50.5782 148.635 48.4096C150.758 46.2409 153.13 44.5015 155.751 43.1913C158.416 41.8811 161.15 41.3389 163.951 41.5648ZM162.46 55.1866C162.189 55.0962 161.963 54.8929 161.782 54.5767C161.647 54.2152 161.534 53.8086 161.443 53.3568C161.398 52.905 161.375 52.4532 161.375 52.0014C161.375 51.5496 161.375 51.143 161.375 50.7815C161.421 50.4201 161.624 50.0587 161.985 49.6972C162.347 49.2906 162.731 48.9292 163.138 48.6129C163.589 48.2966 164.019 48.0256 164.425 47.7997C164.877 47.5286 165.171 47.3479 165.306 47.2575C165.713 47.0316 166.097 46.8961 166.458 46.8509C166.413 46.2184 166.21 45.6762 165.848 45.2244C165.487 44.7726 164.787 44.5919 163.747 44.6822C162.844 44.7726 161.737 45.1566 160.427 45.8343C159.162 46.512 157.964 47.4156 156.835 48.5451H156.903C155.864 49.5843 154.915 50.7815 154.056 52.1369C153.243 53.4472 152.543 54.8251 151.955 56.2709C151.368 57.6715 150.894 59.0947 150.532 60.5404C150.216 61.9862 150.058 63.3416 150.058 64.6066C150.058 66.5042 150.419 68.1081 151.142 69.4183C151.91 70.7285 153.13 71.4288 154.802 71.5192C156.473 71.6095 158.123 70.9996 159.749 69.6894C161.375 68.3792 162.821 66.7301 164.086 64.7422C165.397 62.7542 166.436 60.6308 167.204 58.3718C168.017 56.0676 168.401 53.9667 168.356 52.0692C168.356 51.1656 168.265 50.6234 168.085 50.4427C167.678 50.4427 167.226 50.6234 166.729 50.9848C166.232 51.3011 165.758 51.7077 165.306 52.2047C164.854 52.6565 164.448 53.1535 164.086 53.6956C163.77 54.2378 163.589 54.7348 163.544 55.1866H162.46ZM201.204 64.2678C200.255 65.6232 199.148 67.0012 197.883 68.4017C196.664 69.8023 195.331 71.0674 193.885 72.1969C192.439 73.3264 190.881 74.2526 189.209 74.9754C187.537 75.6531 185.798 75.9468 183.991 75.8564C182.003 75.7661 180.534 75.1336 179.586 73.9589C178.637 72.7842 178.185 71.4288 178.23 69.8927C178.275 68.7632 178.501 67.6563 178.908 66.572C179.314 65.4876 179.789 64.4259 180.331 63.3868C180.918 62.3024 181.573 61.2633 182.296 60.2693C183.019 59.2302 183.742 58.2136 184.465 57.2197C184.646 56.9938 184.849 56.7001 185.075 56.3387C185.301 55.9772 185.527 55.6836 185.753 55.4577L187.311 53.3568C188.125 52.2273 188.87 51.2559 189.548 50.4427C190.225 49.5843 190.677 49.0873 190.903 48.9517C190.361 49.0421 189.864 49.1325 189.412 49.2228C189.006 49.3132 188.599 49.4261 188.192 49.5617C187.695 49.6972 187.176 49.8102 186.634 49.9005C186.137 49.9909 185.459 50.0135 184.6 49.9683H183.787C182.793 51.3237 181.822 52.7469 180.873 54.2378C179.924 55.6836 179.043 57.0841 178.23 58.4396C178.049 58.6655 177.756 58.7784 177.349 58.7784C176.988 58.7784 176.626 58.7332 176.265 58.6429C175.903 58.5073 175.61 58.3266 175.384 58.1007C175.203 57.8748 175.226 57.6037 175.452 57.2875C175.813 56.7001 176.197 56.0676 176.604 55.3899C177.01 54.7122 177.394 54.0797 177.756 53.4923C178.162 52.8146 178.592 52.1143 179.043 51.3915C179.54 50.6234 180.037 49.8553 180.534 49.0873C179.857 48.5903 179.518 47.9126 179.518 47.0542C179.518 46.5572 179.631 45.9925 179.857 45.3599C180.082 44.6822 180.354 44.0045 180.67 43.3268C181.031 42.6491 181.415 41.9714 181.822 41.2937C182.229 40.5709 182.635 39.8932 183.042 39.2606C183.403 38.7185 183.719 38.1537 183.991 37.5664C184.307 36.979 184.578 36.3691 184.804 35.7366C186.024 36.2336 187.176 36.8661 188.26 37.6342C189.39 38.357 189.954 39.2606 189.954 40.345C189.954 40.8419 189.796 41.4745 189.48 42.2425L186.43 46.6476C186.25 46.9186 186.363 47.009 186.769 46.9186C187.221 46.8283 187.853 46.6476 188.667 46.3765C189.48 46.0602 190.384 45.6988 191.377 45.2922C192.417 44.8404 193.388 44.3886 194.292 43.9368C195.24 43.485 196.076 43.0558 196.799 42.6491C197.567 42.1973 198.064 41.8359 198.29 41.5648C198.561 41.5648 198.9 41.6552 199.307 41.8359C199.713 42.0166 200.12 42.2199 200.526 42.4458C200.933 42.6717 201.295 42.8976 201.611 43.1235C201.927 43.3494 202.108 43.485 202.153 43.5301C202.514 44.0271 202.582 44.6822 202.356 45.4955C202.13 46.3087 201.701 47.2349 201.069 48.274C200.436 49.268 199.645 50.3749 198.697 51.5948C197.793 52.7695 196.844 53.9893 195.85 55.2544C195.263 56.0224 194.676 56.7905 194.088 57.5585C193.501 58.2814 192.914 59.0269 192.326 59.7949C191.874 60.3371 191.377 60.9922 190.835 61.7603C190.293 62.5283 189.774 63.3416 189.277 64.2C188.78 65.0132 188.35 65.8265 187.989 66.6397C187.673 67.453 187.515 68.1984 187.515 68.8761C187.515 70.0056 187.944 70.593 188.802 70.6382C189.299 70.6382 189.932 70.4574 190.7 70.096C191.468 69.6894 192.281 69.1472 193.14 68.4695C193.998 67.7466 194.879 66.9334 195.783 66.0298C196.686 65.081 197.522 64.0645 198.29 62.9801C199.103 61.7603 199.894 60.5178 200.662 59.2528C201.475 57.9426 202.13 56.8582 202.627 55.9998C202.808 55.7739 203.079 55.661 203.441 55.661C203.847 55.6158 204.231 55.661 204.593 55.7965C204.954 55.9321 205.248 56.1128 205.474 56.3387C205.7 56.5646 205.722 56.8357 205.541 57.1519C205.225 57.6489 204.909 58.1685 204.593 58.7106C204.322 59.2076 204.028 59.7046 203.712 60.2016C203.305 60.9245 202.898 61.6247 202.492 62.3024C202.085 62.9801 201.656 63.6353 201.204 64.2678Z"/>
<path d="M48.0158 54.8477C47.6996 54.9381 47.2478 54.8477 46.6604 54.5767C46.0731 54.2604 45.5309 53.9215 45.034 53.5601C44.537 53.1535 44.1304 52.7469 43.8141 52.3402C43.543 51.9336 43.5204 51.6174 43.7463 51.3915C47.5415 50.533 51.3592 49.7424 55.1995 49.0195C59.0398 48.2515 62.9253 47.6641 66.8559 47.2575C69.7926 44.5467 72.6615 41.8585 75.4627 39.1929C78.2639 36.4821 80.9069 33.8842 83.3918 31.3993C85.9219 28.8692 88.2712 26.4973 90.4399 24.2835C92.6085 22.0245 94.5287 19.9914 96.2003 18.1842C97.9172 16.377 99.3403 14.8408 100.47 13.5758C101.599 12.2656 102.39 11.2942 102.842 10.6617C103.158 10.5261 103.655 10.6617 104.333 11.0683C105.056 11.4297 105.756 11.8815 106.434 12.4237C107.111 12.9659 107.676 13.5306 108.128 14.118C108.58 14.6601 108.715 15.0441 108.534 15.27L108.196 15.5411C108.422 15.6315 108.534 15.7444 108.534 15.88C108.037 17.1902 107.337 18.7715 106.434 20.6239C105.53 22.4311 104.468 24.419 103.248 26.5876C102.074 28.7563 100.786 31.0605 99.3855 33.5002C97.9849 35.9399 96.5618 38.4022 95.116 40.8871C92.8118 44.8178 90.5302 48.771 88.2712 52.7469C86.0122 56.6775 84.0243 60.3597 82.3075 63.7934C80.6358 67.1819 79.3708 70.1638 78.5124 72.739C77.6991 75.3143 77.5636 77.1893 78.1057 78.3639C78.4672 79.132 78.8286 79.6516 79.1901 79.9226H79.0545C79.3708 80.1485 79.5063 80.3744 79.4611 80.6003C79.4611 80.8714 79.3482 81.0973 79.1223 81.278C78.9416 81.4588 78.6705 81.5717 78.309 81.6169C77.9928 81.7073 77.6539 81.6847 77.2925 81.5491C74.8528 81.3684 73.1585 80.6003 72.2097 79.2449C71.3061 77.9347 70.8543 76.3986 70.8543 74.6366C70.8543 73.8233 70.9221 72.9875 71.0577 72.1291C71.2384 71.2255 71.4417 70.3445 71.6676 69.4861C71.8935 68.6276 72.142 67.8144 72.4131 67.0463C72.6841 66.2783 72.9326 65.578 73.1585 64.9455C74.2428 62.4154 75.4627 59.8627 76.8181 57.2875C78.2187 54.7122 79.7096 52.0918 81.2909 49.4261C80.4325 49.381 79.5967 49.3584 78.7834 49.3584C77.9702 49.3132 77.1795 49.2906 76.4115 49.2906C75.6434 49.2906 74.8754 49.3132 74.1073 49.3584C73.3844 49.3584 72.6615 49.381 71.9387 49.4261L68.889 52.2047L65.4327 55.4577C62.3153 58.3944 59.0172 61.4214 55.5383 64.5389C52.1046 67.6563 48.5354 70.5252 44.8307 73.1456C41.1711 75.7209 37.4211 77.867 33.5808 79.5838C29.7405 81.3458 25.855 82.3172 21.9244 82.4979C18.2648 82.6786 15.0796 82.2946 12.3688 81.3458C9.70319 80.4422 7.48937 79.1546 5.72735 77.4829C4.01051 75.8564 2.72288 73.9363 1.86446 71.7225C1.00604 69.5087 0.576829 67.1819 0.576829 64.7422C0.576829 62.0314 1.0964 59.3206 2.13554 56.6098C3.21986 53.8538 4.77857 51.3689 6.81167 49.1551C8.88995 46.9412 11.42 45.1566 14.4019 43.8012C17.429 42.4006 20.9078 41.6552 24.8385 41.5648C28.0011 41.5196 30.6893 42.1296 32.9031 43.3946C35.117 44.6145 36.8564 46.4217 38.1214 48.8162H38.1892C38.2796 49.1776 38.2796 49.6972 38.1892 50.3749C38.0988 51.0526 37.9407 51.7077 37.7148 52.3402C37.4889 52.9276 37.2178 53.3794 36.9016 53.6956C36.5853 53.9667 36.2465 53.899 35.885 53.4923C35.388 52.7243 34.7555 51.8884 33.9875 50.9848C33.2194 50.0361 32.361 49.1776 31.4122 48.4096C30.4634 47.6415 29.4017 46.9864 28.227 46.4443C27.0975 45.9021 25.8776 45.631 24.5674 45.631C21.45 45.5407 18.6714 46.0376 16.2317 47.122C13.792 48.1611 11.7363 49.5843 10.0646 51.3915C8.39297 53.1535 7.10534 55.164 6.20174 57.423C5.34332 59.682 4.91411 61.941 4.91411 64.2C4.91411 66.0524 5.20778 67.837 5.79512 69.5538C6.42764 71.2707 7.35383 72.7842 8.57369 74.0944C9.83873 75.4046 11.42 76.4438 13.3176 77.2118C15.2152 78.0251 17.4516 78.4317 20.0268 78.4317C20.3883 78.4317 20.7271 78.4317 21.0434 78.4317C21.4048 78.4317 21.7663 78.4091 22.1277 78.3639C25.1548 78.1832 28.3174 77.257 31.6155 75.5854C34.9136 73.9137 38.3247 71.7902 41.8488 69.215C45.3728 66.5945 48.9646 63.6578 52.6242 60.4049C56.2838 57.1067 59.966 53.7182 63.6707 50.2394C58.6557 51.0526 53.4826 52.5887 48.1514 54.8477H48.0158ZM83.7984 38.0408C82.3978 39.4414 80.9295 40.8871 79.3934 42.3781C77.8572 43.869 76.3211 45.3373 74.785 46.7831C75.1916 46.7379 75.5982 46.7153 76.0049 46.7153C76.4115 46.7153 76.8407 46.7153 77.2925 46.7153C78.2413 46.7153 79.1675 46.7379 80.0711 46.7831C80.9747 46.7831 81.8783 46.8057 82.7819 46.8509C84.318 44.2756 85.8993 41.7229 87.5258 39.1929C89.1523 36.6628 90.7787 34.1101 92.4052 31.5348L95.3871 26.9265C93.3992 28.7789 91.4338 30.6312 89.4911 32.4836C87.5935 34.336 85.696 36.1884 83.7984 38.0408ZM143.625 63.0479C142.992 64.0419 142.134 65.2843 141.049 66.7753C139.965 68.221 138.745 69.6216 137.39 70.977C136.079 72.3324 134.656 73.5071 133.12 74.501C131.584 75.4498 130.048 75.9242 128.512 75.9242C127.608 75.9242 126.75 75.7887 125.937 75.5176C125.123 75.2465 124.4 74.8399 123.768 74.2977C123.135 73.7556 122.638 73.0553 122.277 72.1969C121.916 71.3384 121.757 70.3219 121.803 69.1472C121.848 68.0177 122.006 66.8882 122.277 65.7587C122.548 64.6292 122.909 63.4319 123.361 62.1669C123.813 60.8567 124.333 59.4335 124.92 57.8974C125.553 56.3613 126.275 54.6444 127.089 52.7469C127.45 51.8433 127.766 50.9848 128.037 50.1716C128.308 49.3584 128.444 48.6355 128.444 48.003C128.444 47.5512 128.15 47.4382 127.563 47.6641C127.021 47.89 126.095 48.5451 124.784 49.6294C123.203 51.0752 121.735 52.4984 120.379 53.899C119.024 55.2995 117.691 56.8582 116.381 58.5751C115.658 60.1112 114.98 61.7829 114.348 63.5901C113.761 65.3973 113.241 67.3174 112.789 69.3505C112.337 71.3384 112.044 73.3715 111.908 75.4498C111.908 75.9016 111.569 76.0823 110.892 75.992C110.214 75.9016 109.468 75.6983 108.655 75.3821C107.887 75.0206 107.164 74.5914 106.487 74.0944C105.809 73.5523 105.447 73.0553 105.402 72.6035C105.538 69.4409 106.103 66.2783 107.096 63.1157C108.136 59.9079 109.31 56.6323 110.621 53.289C111.298 51.5722 111.795 50.149 112.111 49.0195C112.428 47.89 112.473 47.2123 112.247 46.9864C111.705 47.0768 110.417 47.9578 108.384 49.6294C106.803 51.03 105.357 52.4532 104.047 53.899C102.737 55.2995 101.381 56.8582 99.9806 58.5751C98.8059 61.2407 97.812 63.9741 96.9987 66.7753C96.1855 69.5764 95.6659 72.4679 95.44 75.4498C95.3949 75.8564 95.0334 76.0146 94.3557 75.9242C93.678 75.8339 92.9551 75.6305 92.1871 75.3143C91.419 74.9528 90.6961 74.5236 90.0184 74.0267C89.3407 73.5297 88.9793 73.0553 88.9341 72.6035C89.1148 69.215 89.7473 65.8717 90.8317 62.5735C91.9612 59.2302 93.1584 55.8643 94.4235 52.4758C95.056 50.8945 95.6659 49.268 96.2533 47.5963C96.8858 45.9247 97.4731 44.0949 98.0153 42.107C98.5575 41.8359 99.3029 41.8359 100.252 42.107C101.2 42.3329 102.104 42.7169 102.963 43.2591C103.821 43.8012 104.521 44.4563 105.063 45.2244C105.606 45.9925 105.741 46.7605 105.47 47.5286H105.538C105.538 47.6189 105.515 47.6867 105.47 47.7319C107.142 46.1506 108.926 44.8178 110.824 43.7335C112.721 42.604 114.709 41.9714 116.788 41.8359C117.33 41.8359 117.917 42.0392 118.55 42.4458C119.227 42.8073 119.837 43.2817 120.379 43.869C120.922 44.4112 121.328 44.9985 121.599 45.631C121.87 46.2635 121.916 46.8283 121.735 47.3253C121.644 47.4608 121.577 47.5963 121.531 47.7319C121.531 47.8674 121.486 47.9804 121.396 48.0707C123.113 46.4443 124.965 45.0437 126.953 43.869C128.941 42.6491 131.019 41.9714 133.188 41.8359C133.685 41.8359 134.25 42.0392 134.882 42.4458C135.515 42.8073 136.079 43.2817 136.576 43.869C137.119 44.4112 137.525 44.9985 137.796 45.631C138.113 46.2635 138.18 46.8283 138 47.3253C137.232 49.4939 136.463 51.4818 135.695 53.289C134.927 55.0962 134.25 56.6549 133.662 57.9652C133.12 59.0947 132.646 60.1564 132.239 61.1504C131.833 62.1443 131.471 63.1383 131.155 64.1322C130.839 65.1262 130.567 66.1427 130.342 67.1819C130.116 68.221 129.958 69.3505 129.867 70.5704C129.822 70.7963 129.867 71.0448 130.003 71.3159C130.138 71.5869 130.455 71.6095 130.952 71.3836C132.217 70.7963 133.708 69.7346 135.424 68.1984C137.141 66.6171 138.926 64.4711 140.778 61.7603C141.185 61.1729 141.614 60.4952 142.066 59.7272C142.518 58.9139 142.992 58.0555 143.489 57.1519L144.234 55.9998C144.506 55.6384 144.867 55.4125 145.319 55.3221C145.771 55.2318 146.177 55.2544 146.539 55.3899C146.945 55.4803 147.216 55.6836 147.352 55.9998C147.533 56.3161 147.487 56.7001 147.216 57.1519C146.629 58.1459 146.019 59.1398 145.387 60.1338C144.799 61.0826 144.212 62.054 143.625 63.0479ZM163.951 41.5648C165.08 41.7004 166.052 41.9714 166.865 42.3781C167.678 42.7847 168.333 43.2817 168.83 43.869C169.372 44.4563 169.756 45.1114 169.982 45.8343C170.253 46.5572 170.434 47.2801 170.524 48.003C171.383 48.9517 171.925 50.262 172.151 51.9336C172.196 52.2499 172.219 52.5661 172.219 52.8824C172.264 53.1987 172.286 53.5375 172.286 53.899C172.286 55.5706 172.038 57.2649 171.541 58.9817C171.089 60.6986 170.434 62.3702 169.576 63.9967C168.717 65.6232 167.701 67.1593 166.526 68.6051C165.351 70.0056 164.064 71.2481 162.663 72.3324C161.308 73.4167 159.862 74.2751 158.326 74.9077C156.835 75.495 155.299 75.7887 153.717 75.7887C150.961 75.7435 148.522 74.9077 146.398 73.2812C144.275 71.6095 142.829 69.2602 142.061 66.2331C141.835 65.2391 141.722 64.2904 141.722 63.3868C141.722 60.9019 142.355 58.3266 143.62 55.661C144.885 52.9954 146.556 50.5782 148.635 48.4096C150.758 46.2409 153.13 44.5015 155.751 43.1913C158.416 41.8811 161.15 41.3389 163.951 41.5648ZM162.46 55.1866C162.189 55.0962 161.963 54.8929 161.782 54.5767C161.647 54.2152 161.534 53.8086 161.443 53.3568C161.398 52.905 161.375 52.4532 161.375 52.0014C161.375 51.5496 161.375 51.143 161.375 50.7815C161.421 50.4201 161.624 50.0587 161.985 49.6972C162.347 49.2906 162.731 48.9292 163.138 48.6129C163.589 48.2966 164.019 48.0256 164.425 47.7997C164.877 47.5286 165.171 47.3479 165.306 47.2575C165.713 47.0316 166.097 46.8961 166.458 46.8509C166.413 46.2184 166.21 45.6762 165.848 45.2244C165.487 44.7726 164.787 44.5919 163.747 44.6822C162.844 44.7726 161.737 45.1566 160.427 45.8343C159.162 46.512 157.964 47.4156 156.835 48.5451H156.903C155.864 49.5843 154.915 50.7815 154.056 52.1369C153.243 53.4472 152.543 54.8251 151.955 56.2709C151.368 57.6715 150.894 59.0947 150.532 60.5404C150.216 61.9862 150.058 63.3416 150.058 64.6066C150.058 66.5042 150.419 68.1081 151.142 69.4183C151.91 70.7285 153.13 71.4288 154.802 71.5192C156.473 71.6095 158.123 70.9996 159.749 69.6894C161.375 68.3792 162.821 66.7301 164.086 64.7422C165.397 62.7542 166.436 60.6308 167.204 58.3718C168.017 56.0676 168.401 53.9667 168.356 52.0692C168.356 51.1656 168.265 50.6234 168.085 50.4427C167.678 50.4427 167.226 50.6234 166.729 50.9848C166.232 51.3011 165.758 51.7077 165.306 52.2047C164.854 52.6565 164.448 53.1535 164.086 53.6956C163.77 54.2378 163.589 54.7348 163.544 55.1866H162.46ZM201.204 64.2678C200.255 65.6232 199.148 67.0012 197.883 68.4017C196.664 69.8023 195.331 71.0674 193.885 72.1969C192.439 73.3264 190.881 74.2526 189.209 74.9754C187.537 75.6531 185.798 75.9468 183.991 75.8564C182.003 75.7661 180.534 75.1336 179.586 73.9589C178.637 72.7842 178.185 71.4288 178.23 69.8927C178.275 68.7632 178.501 67.6563 178.908 66.572C179.314 65.4876 179.789 64.4259 180.331 63.3868C180.918 62.3024 181.573 61.2633 182.296 60.2693C183.019 59.2302 183.742 58.2136 184.465 57.2197C184.646 56.9938 184.849 56.7001 185.075 56.3387C185.301 55.9772 185.527 55.6836 185.753 55.4577L187.311 53.3568C188.125 52.2273 188.87 51.2559 189.548 50.4427C190.225 49.5843 190.677 49.0873 190.903 48.9517C190.361 49.0421 189.864 49.1325 189.412 49.2228C189.006 49.3132 188.599 49.4261 188.192 49.5617C187.695 49.6972 187.176 49.8102 186.634 49.9005C186.137 49.9909 185.459 50.0135 184.6 49.9683H183.787C182.793 51.3237 181.822 52.7469 180.873 54.2378C179.924 55.6836 179.043 57.0841 178.23 58.4396C178.049 58.6655 177.756 58.7784 177.349 58.7784C176.988 58.7784 176.626 58.7332 176.265 58.6429C175.903 58.5073 175.61 58.3266 175.384 58.1007C175.203 57.8748 175.226 57.6037 175.452 57.2875C175.813 56.7001 176.197 56.0676 176.604 55.3899C177.01 54.7122 177.394 54.0797 177.756 53.4923C178.162 52.8146 178.592 52.1143 179.043 51.3915C179.54 50.6234 180.037 49.8553 180.534 49.0873C179.857 48.5903 179.518 47.9126 179.518 47.0542C179.518 46.5572 179.631 45.9925 179.857 45.3599C180.082 44.6822 180.354 44.0045 180.67 43.3268C181.031 42.6491 181.415 41.9714 181.822 41.2937C182.229 40.5709 182.635 39.8932 183.042 39.2606C183.403 38.7185 183.719 38.1537 183.991 37.5664C184.307 36.979 184.578 36.3691 184.804 35.7366C186.024 36.2336 187.176 36.8661 188.26 37.6342C189.39 38.357 189.954 39.2606 189.954 40.345C189.954 40.8419 189.796 41.4745 189.48 42.2425L186.43 46.6476C186.25 46.9186 186.363 47.009 186.769 46.9186C187.221 46.8283 187.853 46.6476 188.667 46.3765C189.48 46.0602 190.384 45.6988 191.377 45.2922C192.417 44.8404 193.388 44.3886 194.292 43.9368C195.24 43.485 196.076 43.0558 196.799 42.6491C197.567 42.1973 198.064 41.8359 198.29 41.5648C198.561 41.5648 198.9 41.6552 199.307 41.8359C199.713 42.0166 200.12 42.2199 200.526 42.4458C200.933 42.6717 201.295 42.8976 201.611 43.1235C201.927 43.3494 202.108 43.485 202.153 43.5301C202.514 44.0271 202.582 44.6822 202.356 45.4955C202.13 46.3087 201.701 47.2349 201.069 48.274C200.436 49.268 199.645 50.3749 198.697 51.5948C197.793 52.7695 196.844 53.9893 195.85 55.2544C195.263 56.0224 194.676 56.7905 194.088 57.5585C193.501 58.2814 192.914 59.0269 192.326 59.7949C191.874 60.3371 191.377 60.9922 190.835 61.7603C190.293 62.5283 189.774 63.3416 189.277 64.2C188.78 65.0132 188.35 65.8265 187.989 66.6397C187.673 67.453 187.515 68.1984 187.515 68.8761C187.515 70.0056 187.944 70.593 188.802 70.6382C189.299 70.6382 189.932 70.4574 190.7 70.096C191.468 69.6894 192.281 69.1472 193.14 68.4695C193.998 67.7466 194.879 66.9334 195.783 66.0298C196.686 65.081 197.522 64.0645 198.29 62.9801C199.103 61.7603 199.894 60.5178 200.662 59.2528C201.475 57.9426 202.13 56.8582 202.627 55.9998C202.808 55.7739 203.079 55.661 203.441 55.661C203.847 55.6158 204.231 55.661 204.593 55.7965C204.954 55.9321 205.248 56.1128 205.474 56.3387C205.7 56.5646 205.722 56.8357 205.541 57.1519C205.225 57.6489 204.909 58.1685 204.593 58.7106C204.322 59.2076 204.028 59.7046 203.712 60.2016C203.305 60.9245 202.898 61.6247 202.492 62.3024C202.085 62.9801 201.656 63.6353 201.204 64.2678Z" fill="#FC1FB1"/>
</svg>
